<?xml version="1.0" encoding="utf-8"?>
<!-- Generator: Adobe Illustrator 25.4.1, SVG Export Plug-In . SVG Version: 6.00 Build 0)  -->
<svg version="1.1" id="Layer_1" xmlns="http://www.w3.org/2000/svg" xmlns:xlink="http://www.w3.org/1999/xlink" x="0px" y="0px"
	 viewBox="0 0 10.5 11.6" style="enable-background:new 0 0 10.5 11.6;" xml:space="preserve">
<style type="text/css">
	.st0{fill:#5F2725;}
</style>
<g>
	<path class="st0" d="M3.6,11.5C2.8,11.8,2.4,11,1.7,11c-0.1,0-0.2-0.2-0.2-0.4c0-0.7-0.7-0.8-1-1.3c0-0.3,0-0.6,0-1
		C0.4,8.3,0.3,8.2,0.1,8.1C0.1,7.9,0,7.8,0,7.6c0-1,0-2.1,0-3.1c0.1-0.1,0.2-0.2,0.4-0.4c0-0.3,0.1-0.7,0.1-1.1
		c0.8-0.8,1.6-1.6,2.4-2.4V0.2C3.8,0,3.8,0,4.8,0.5C5.1,0.4,5.3,0.2,5.6,0h1.4c0.2,0.2,0.3,0.3,0.5,0.5h0.5l2,2
		c0.1,0.3,0.3,0.7,0.6,1.3v3.5c-0.3,0.4-0.5,1-0.9,1.4C9.3,9.2,8.9,9.6,8.5,9.9c-0.4,0.2-0.7,0.3-1.3,0.6H6.1
		c-0.2,0.2-0.4,0.3-0.6,0.5H4.1C3.9,11.2,3.8,11.3,3.6,11.5"/>
</g>
</svg>
