<svg id="Layer_1" data-name="Layer 1" xmlns="http://www.w3.org/2000/svg" viewBox="0 0 142 3.51"><defs><style>.cls-1{fill:#a6ff00;}</style></defs><path class="cls-1" d="M129,1.32c-.06,0-.12-.08-.25-.18l-.27-.27-.48.48-.94,0L126.59,1l-.8.52L125.05,1,116,1.34l-.46-.42-9.06.36c-.34-.2-.55-.65-1-.45l-.48.48-.94,0-.59-.47-12.9.52L90.1,1l-3,.12-.4.43c-.16-.13-.33-.27-.55-.43l-3.72.15-.07-.08-3.81-.12L78,1.54l-5.23-.17-.42.4L47.81,1,47.42.54,46.89,1,46,.93c-.28-.18-.45-.66-1-.5l-.54.48L33.93.56,33.5,1l-15-.49c-.36-.61-.91-.49-1.46-.39l-.43.41L7.51.19,7,.63C4.92.56,2.15,1,0,.89V2.44c3,.1,4.93-.49,8-.39l.46-.43,27.34.9.44-.41C42.81,2.18,57,2.7,59.44,3l.34.35,1.91.07.52-.45,1.9.06.49.47c.53.22.69-.34,1.2-.46l6,.2.48-.45L79.5,3l.44-.41c1-.08,2,.12,3,0a1,1,0,0,0,.13-.38l.77,0,.57.47.89,0,.6.47,6.18-.24.41.38L97.83,3l.5-.41.45.41,8.6-.35.54.46.47-.47,4.3-.17.59.47,9.06-.36.47.43,5.28-.21.43.4,1.55-.06.39-.42a17.21,17.21,0,0,1,2-.07l.44.44,5.27-.21c.19.16.46-.49.61-.37l2.41-.09a4.66,4.66,0,0,1,.82,0V.89S132.85,1.18,129,1.32Z"/></svg>